<svg width="167" height="48" viewBox="0 0 167 48" fill="none" xmlns="http://www.w3.org/2000/svg">
<g filter="url(#filter0_b_1_19)">
<path d="M0.0454559 47V0.454544H31.4091V8.56818H9.88637V19.6591H29.7955V27.7727H9.88637V38.8864H31.5V47H0.0454559Z" fill="white"/>
<path d="M39.233 47V0.454544H57.5966C61.1269 0.454544 64.1345 1.12879 66.6193 2.47727C69.1042 3.81061 70.9981 5.66667 72.3011 8.04545C73.6193 10.4091 74.2784 13.1364 74.2784 16.2273C74.2784 19.3182 73.6117 22.0455 72.2784 24.4091C70.9451 26.7727 69.0133 28.6136 66.483 29.9318C63.9678 31.25 60.9223 31.9091 57.3466 31.9091H45.642V24.0227H55.7557C57.6496 24.0227 59.2102 23.697 60.4375 23.0455C61.6799 22.3788 62.6042 21.4621 63.2102 20.2955C63.8314 19.1136 64.142 17.7576 64.142 16.2273C64.142 14.6818 63.8314 13.3333 63.2102 12.1818C62.6042 11.0151 61.6799 10.1136 60.4375 9.47727C59.1951 8.82576 57.6193 8.5 55.7102 8.5H49.0739V47H39.233Z" fill="white"/>
<path d="M109.42 0.454544H119.261V30.6818C119.261 34.0758 118.451 37.0455 116.83 39.5909C115.223 42.1364 112.973 44.1212 110.08 45.5455C107.186 46.9545 103.814 47.6591 99.9659 47.6591C96.1023 47.6591 92.7235 46.9545 89.8295 45.5455C86.9356 44.1212 84.6856 42.1364 83.0795 39.5909C81.4735 37.0455 80.6705 34.0758 80.6705 30.6818V0.454544H90.5114V29.8409C90.5114 31.6136 90.8977 33.1894 91.6705 34.5682C92.4583 35.947 93.5644 37.0303 94.9886 37.8182C96.4129 38.6061 98.072 39 99.9659 39C101.875 39 103.534 38.6061 104.943 37.8182C106.367 37.0303 107.466 35.947 108.239 34.5682C109.027 33.1894 109.42 31.6136 109.42 29.8409V0.454544Z" fill="white"/>
<path d="M166.29 0.454544V47H157.79L137.54 17.7045H137.199V47H127.358V0.454544H135.994L156.085 29.7273H156.494V0.454544H166.29Z" fill="white"/>
</g>
<defs>
<filter id="filter0_b_1_19" x="-3.95454" y="-3.54546" width="174.244" height="55.2045" filterUnits="userSpaceOnUse" color-interpolation-filters="sRGB">
<feFlood flood-opacity="0" result="BackgroundImageFix"/>
<feGaussianBlur in="BackgroundImageFix" stdDeviation="2"/>
<feComposite in2="SourceAlpha" operator="in" result="effect1_backgroundBlur_1_19"/>
<feBlend mode="normal" in="SourceGraphic" in2="effect1_backgroundBlur_1_19" result="shape"/>
</filter>
</defs>
</svg>
