<svg xmlns="http://www.w3.org/2000/svg" viewBox="0 0 29 29" id="tik-tok" fill="none"><path d="M25 6h-1c-1.103 0-2-.897-2-2V3a1 1 0 0 0-1-1h-4a1 1 0 0 0-1 1v17.5c0 1.378-1.121 2.5-2.5 2.5S11 21.878 11 20.5s1.121-2.5 2.5-2.5c.089 0 .168-.029.25-.05.082.021.161.05.25.05a1 1 0 0 0 1-1v-4a1 1 0 0 0-1-1c-.089 0-.168.029-.25.05-.082-.021-.161-.05-.25-.05C8.813 12 5 15.813 5 20.5S8.813 29 13.5 29c4.461 0 8.124-3.457 8.466-7.832.01-.057.034-.109.034-.168v-9.338c1.554.529 3.049.34 3.132.329A1 1 0 0 0 26 11V7a1 1 0 0 0-1-1zm-1 4.023c-.688-.039-1.647-.21-2.368-.798A1 1 0 0 0 20 10v10.5c0 3.584-2.916 6.5-6.5 6.5S7 24.084 7 20.5c0-3.415 2.649-6.218 6-6.475v2.025c-2.244.252-4 2.139-4 4.449 0 2.481 2.019 4.5 4.5 4.5s4.5-2.019 4.5-4.5V4h2c0 2.206 1.794 4 4 4v2.023z" fill="white"></path></svg>
